Coordinates
version=1
nRows=10
nColumns=38
inDegrees=no

Units are S.I. units (second, meters, Newtons, ...)
If the header above contains a line with 'inDegrees', this indicates whether rotational values are in degrees (yes) or radians (no).

endheader
time	pelvis_tilt	pelvis_list	pelvis_rotation	pelvis_tx	pelvis_ty	pelvis_tz	hip_flexion_r	hip_adduction_r	hip_rotation_r	knee_angle_r	ankle_angle_r	subtalar_angle_r	mtp_angle_r	hip_flexion_l	hip_adduction_l	hip_rotation_l	knee_angle_l	ankle_angle_l	subtalar_angle_l	mtp_angle_l	lumbar_extension	lumbar_bending	lumbar_rotation	arm_flex_r	arm_add_r	arm_rot_r	elbow_flex_r	pro_sup_r	wrist_flex_r	wrist_dev_r	arm_flex_l	arm_add_l	arm_rot_l	elbow_flex_l	pro_sup_l	wrist_flex_l	wrist_dev_l
1.625	-0.0659111	0.0558838	0.0396245	0.907826	1.0098	-0.289465	-0.124275	-0.00101774	0.00741214	-1.06407	-0.260772	-0.0285802	0.00200916	0.456277	0.167667	0.152975	-0.247125	0.19522	-0.0299809	-0.0350909	-0.132663	-0.0719871	0.095293	-0.48304	-0.30307	0.0827337	1.9047	1.82208	-0.0211789	-0.00609321	-0.785587	-0.25868	-0.0580589	2.04526	2.03782	0.0469961	-0.0246415
1.63333	-0.0606105	0.0639193	0.0455357	0.906437	1.00378	-0.290214	-0.094706	-0.0152796	-0.00806661	-1.15566	-0.246079	-0.0285802	0.00200916	0.460423	0.185332	0.146048	-0.295256	0.179483	-0.0299809	-0.0350909	-0.145474	-0.0799942	0.0770697	-0.492027	-0.299425	0.0781201	1.8747	1.81879	-0.0211789	-0.00609321	-0.769085	-0.259153	-0.0620573	2.03982	2.03044	0.0469961	-0.0246415
1.64167	-0.0563442	0.0743517	0.0524943	0.904803	0.997092	-0.29113	-0.0630498	-0.0333871	-0.0229448	-1.24605	-0.230598	-0.0285802	0.00200916	0.467081	0.206221	0.141043	-0.349358	0.160332	-0.0299809	-0.0350909	-0.158074	-0.0900683	0.0560034	-0.500602	-0.295935	0.0732679	1.84254	1.81768	-0.0211789	-0.00609321	-0.751683	-0.260321	-0.0661843	2.03475	2.02361	0.0469961	-0.0246415
1.65	-0.0528652	0.0868809	0.0601355	0.902922	0.989933	-0.292137	-0.0293404	-0.0546524	-0.0359131	-1.33464	-0.214452	-0.0285802	0.00200916	0.47565	0.229683	0.137644	-0.408175	0.141015	-0.0299809	-0.0350909	-0.170722	-0.101963	0.0321469	-0.507987	-0.29274	0.0686155	1.8075	1.81867	-0.0211789	-0.00609321	-0.733214	-0.262039	-0.0705152	2.02998	2.01755	0.0469961	-0.0246415
1.65833	-0.0499019	0.101058	0.0679668	0.900797	0.982574	-0.293132	0.00653098	-0.0780498	-0.0456485	-1.42081	-0.197969	-0.0285802	0.00200916	0.485451	0.254849	0.135302	-0.470467	0.125359	-0.0299809	-0.0350909	-0.183599	-0.115348	0.00570337	-0.513317	-0.289971	0.0646883	1.76872	1.8214	-0.0211789	-0.00609321	-0.713444	-0.264102	-0.0751542	2.02533	2.01248	0.0469961	-0.0246415
1.66667	-0.0472173	0.116301	0.0754134	0.898441	0.975328	-0.294018	0.0447413	-0.102265	-0.0509524	-1.50385	-0.181554	-0.0285802	0.00200916	0.495601	0.280672	0.133427	-0.534724	0.116906	-0.0299809	-0.0350909	-0.196806	-0.129762	-0.0227991	-0.51599	-0.287683	0.0618058	1.72548	1.82536	-0.0211789	-0.00609321	-0.692012	-0.266361	-0.080062	2.02055	2.00869	0.0469961	-0.0246415
1.675	-0.0446812	0.131925	0.0819087	0.895879	0.968445	-0.294711	0.0854606	-0.125796	-0.0509273	-1.58291	-0.165596	-0.0285802	0.00200916	0.504959	0.306001	0.131548	-0.598947	0.118063	-0.0299809	-0.0350909	-0.210234	-0.144644	-0.052666	-0.515685	-0.285915	0.0601853	1.67733	1.83007	-0.0211789	-0.00609321	-0.668619	-0.268652	-0.085173	2.01543	2.0064	0.0469961	-0.0246415
1.68333	-0.0422116	0.147159	0.0869376	0.893147	0.962072	-0.295165	0.12871	-0.147089	-0.0450997	-1.65698	-0.150349	-0.0285802	0.00200916	0.512193	0.329665	0.129425	-0.660815	0.129721	-0.0299809	-0.0350909	-0.223655	-0.159288	-0.0828895	-0.512675	-0.284648	0.0596465	1.62446	1.83524	-0.0211789	-0.00609321	-0.642982	-0.270885	-0.0902315	2.00983	2.00582	0.0469961	-0.0246415
1.69167	-0.0397822	0.161214	0.0900706	0.890306	0.956288	-0.295372	0.174312	-0.164688	-0.0334926	-1.725	-0.135893	-0.0285802	0.00200916	0.515955	0.350574	0.127058	-0.717926	0.151245	-0.0299809	-0.0350909	-0.236695	-0.172897	-0.112321	-0.507738	-0.283882	0.0597547	1.56779	1.84079	-0.0211789	-0.00609321	-0.614991	-0.272963	-0.0949298	2.00379	2.00701	0.0469961	-0.0246415
1.7	-0.0373421	0.173313	0.090964	0.88744	0.951163	-0.295353	0.221858	-0.177399	-0.0166078	-1.78589	-0.122119	-0.0285802	0.00200916	0.515084	0.367809	0.12462	-0.768201	0.180879	-0.0299809	-0.0350909	-0.248971	-0.184608	-0.139601	-0.502237	-0.283601	0.0596566	1.5091	1.84681	-0.0211789	-0.00609321	-0.584636	-0.27483	-0.0987964	1.9976	2.00995	0.0469961	-0.0246415
